<?xml version="1.0" encoding="utf-8"?>
<!-- Generator: Adobe Illustrator 26.0.1, SVG Export Plug-In . SVG Version: 6.00 Build 0)  -->
<svg version="1.1" xmlns="http://www.w3.org/2000/svg" xmlns:xlink="http://www.w3.org/1999/xlink" x="0px" y="0px"
	 viewBox="0 0 1000 1000" style="enable-background:new 0 0 1000 1000;" xml:space="preserve">
<style type="text/css">
	.st0{fill-rule:evenodd;clip-rule:evenodd;fill:#EA288F;}
	.st1{fill-rule:evenodd;clip-rule:evenodd;fill:#8FC964;}
	.st2{fill-rule:evenodd;clip-rule:evenodd;fill:#FBF1B5;}
	.st3{fill-rule:evenodd;clip-rule:evenodd;fill:#662E69;}
	.st4{fill-rule:evenodd;clip-rule:evenodd;fill:#F8AE27;}
	.st5{fill-rule:evenodd;clip-rule:evenodd;fill:#D02D85;}
	.st6{fill-rule:evenodd;clip-rule:evenodd;fill:#43C1C5;}
</style>
<g id="background">
</g>
<g id="flowers4">
	<polygon class="st0" points="0,0 166.67,100 0,200 	"/>
	<polygon class="st1" points="166.67,100 333.35,200 166.67,300 	"/>
	<polygon class="st2" points="333.35,0 166.67,100 333.35,200 	"/>
	<polygon class="st1" points="166.67,100 0,200 166.67,300 	"/>
	<polygon class="st3" points="0,200 166.67,300 0,400 	"/>
	<polygon class="st3" points="166.67,300 333.35,400 166.67,500 	"/>
	<polygon class="st4" points="333.35,200 166.67,300 333.35,400 	"/>
	<polygon class="st5" points="166.67,300 0,400 166.67,500 	"/>
	<polygon class="st2" points="0,400 166.67,500 0,600 	"/>
	<polygon class="st4" points="166.67,500 333.35,600 166.67,700 	"/>
	<polygon class="st6" points="333.35,400 166.67,500 333.35,600 	"/>
	<polygon class="st4" points="166.67,500 0,600 166.67,700 	"/>
	<polygon class="st1" points="0,600 166.67,700 0,800 	"/>
	<polygon class="st6" points="166.67,700 333.35,800 166.67,900 	"/>
	<polygon class="st0" points="333.35,600 166.67,700 333.35,800 	"/>
	<polygon class="st5" points="166.67,700 0,800 166.67,900 	"/>
	<polygon class="st3" points="0,800 166.67,900 0,1000 	"/>
	<polygon class="st5" points="166.67,900 333.35,1000 166.67,1000 	"/>
	<polygon class="st4" points="333.35,800 166.67,900 333.35,1000 	"/>
	<polygon class="st2" points="166.67,900 0,1000 166.67,1000 	"/>
	<polygon class="st5" points="166.67,0 333.35,0 166.67,100 	"/>
	<polygon class="st2" points="166.67,0 0,0 166.67,100 	"/>
	<polygon class="st4" points="333.3,0 499.98,100 333.3,200 	"/>
	<polygon class="st6" points="499.98,100.06 666.65,200.06 499.98,300.06 	"/>
	<polygon class="st5" points="666.65,0 499.98,100 666.65,200 	"/>
	<polygon class="st2" points="499.98,100 333.3,200 499.98,300 	"/>
	<polygon class="st4" points="333.3,200 499.98,300 333.3,400 	"/>
	<polygon class="st0" points="499.98,300 666.65,400 499.98,500 	"/>
	<polygon class="st3" points="666.65,200 499.98,300 666.65,400 	"/>
	<polygon class="st5" points="499.98,300 333.3,400 499.98,500 	"/>
	<polygon class="st4" points="333.3,400 499.98,500 333.3,600 	"/>
	<polygon class="st6" points="499.98,500 666.65,600 499.98,700 	"/>
	<polygon class="st3" points="666.65,400 499.98,500 666.65,600 	"/>
	<polygon class="st6" points="499.98,500 333.3,600 499.98,700 	"/>
	<polygon class="st3" points="333.3,600 499.98,700 333.3,800 	"/>
	<polygon class="st1" points="499.98,700 666.65,800 499.98,900 	"/>
	<polygon class="st2" points="666.65,600 499.98,700 666.65,800 	"/>
	<polygon class="st1" points="499.98,700 333.3,800 499.98,900 	"/>
	<polygon class="st4" points="333.3,800 499.98,900 333.3,1000 	"/>
	<polygon class="st3" points="499.98,900 666.65,1000 499.98,1000 	"/>
	<polygon class="st1" points="666.65,800 499.98,900 666.65,1000 	"/>
	<polygon class="st6" points="499.98,900 333.3,1000 499.98,1000 	"/>
	<polygon class="st3" points="499.98,0 666.65,0 499.98,100 	"/>
	<polygon class="st6" points="499.98,0 333.3,0 499.98,100 	"/>
	<polygon class="st5" points="666.65,0 833.33,100 666.65,200 	"/>
	<polygon class="st3" points="833.33,100 1000,200 833.33,300 	"/>
	<polygon class="st6" points="1000,0 833.33,100 1000,200 	"/>
	<polygon class="st1" points="833.33,100 666.65,200 833.33,300 	"/>
	<polygon class="st3" points="666.65,200 833.33,300 666.65,400 	"/>
	<polygon class="st6" points="833.33,300 1000,400 833.33,500 	"/>
	<polygon class="st0" points="1000,200 833.33,300 1000,400 	"/>
	<polygon class="st2" points="833.33,300 666.65,400 833.33,500 	"/>
	<polygon class="st4" points="666.65,400 833.33,500 666.65,600 	"/>
	<polygon class="st5" points="833.33,500 1000,600 833.33,700 	"/>
	<polygon class="st3" points="1000,400 833.33,500 1000,600 	"/>
	<polygon class="st0" points="833.33,500 666.65,600 833.33,700 	"/>
	<polygon class="st1" points="666.65,600 833.33,700 666.65,800 	"/>
	<polygon class="st3" points="833.33,700 1000,800 833.33,900 	"/>
	<polygon class="st4" points="1000,600 833.33,700 1000,800 	"/>
	<polygon class="st6" points="833.33,700 666.65,800 833.33,900 	"/>
	<polygon class="st1" points="666.65,800 833.33,900 666.65,1000 	"/>
	<polygon class="st4" points="833.33,900 1000,1000 833.33,1000 	"/>
	<polygon class="st2" points="1000,800 833.33,900 1000,1000 	"/>
	<polygon class="st0" points="833.33,900 666.65,1000 833.33,1000 	"/>
	<polygon class="st4" points="833.33,0 1000,0 833.33,100 	"/>
	<polygon class="st0" points="833.33,0 666.65,0 833.33,100 	"/>
	<g>
		<polygon class="st3" points="388.86,166.73 444.43,200.06 388.86,233.39 		"/>
		<polygon class="st0" points="444.43,133.39 388.86,166.73 444.43,200.06 		"/>
		<polygon class="st5" points="388.86,166.73 333.3,200.06 388.86,233.39 		"/>
		<polygon class="st6" points="444.43,200.06 388.86,233.39 444.43,266.73 		"/>
		<polygon class="st2" points="499.98,100.06 444.41,133.39 499.98,166.73 		"/>
		<polygon class="st4" points="444.41,133.39 499.98,166.73 444.41,200.06 		"/>
		<polygon class="st5" points="499.98,166.73 444.41,200.06 499.98,233.39 		"/>
		<polygon class="st4" points="444.41,200.06 499.98,233.39 444.41,266.73 		"/>
		<polygon class="st1" points="499.98,233.39 444.41,266.73 499.98,300.06 		"/>
	</g>
	<g>
		<polygon class="st1" points="277.79,566.67 222.22,600 277.79,633.33 		"/>
		<polygon class="st1" points="222.22,533.33 277.79,566.67 222.22,600 		"/>
		<polygon class="st1" points="277.79,566.67 333.35,600 277.79,633.33 		"/>
		<polygon class="st5" points="222.22,600 277.79,633.33 222.22,666.67 		"/>
		<polygon class="st1" points="166.67,500 222.24,533.33 166.67,566.67 		"/>
		<polygon class="st1" points="222.24,533.33 166.67,566.67 222.24,600 		"/>
		<polygon class="st5" points="166.67,566.67 222.24,600 166.67,633.33 		"/>
		<polygon class="st5" points="222.24,600 166.67,633.33 222.24,666.67 		"/>
		<polygon class="st4" points="166.67,633.33 222.24,666.67 166.67,700 		"/>
	</g>
	<g>
		<polygon class="st4" points="722.2,33.33 777.76,66.67 722.2,100 		"/>
		<polygon class="st4" points="777.76,66.67 833.33,100 777.76,133.33 		"/>
		<polygon class="st4" points="722.2,100 777.76,133.33 722.2,166.67 		"/>
		<polygon class="st4" points="666.65,0 722.21,33.33 666.65,66.67 		"/>
		<polygon class="st4" points="666.65,66.67 722.21,100 666.65,133.33 		"/>
		<polygon class="st4" points="666.65,133.33 722.21,166.67 666.65,200 		"/>
	</g>
	<g>
		<polygon class="st1" points="333.29,333.34 388.86,366.67 333.29,400.01 		"/>
		<polygon class="st1" points="388.86,366.67 444.42,400.01 388.86,433.34 		"/>
		<polygon class="st1" points="333.29,400.01 388.86,433.34 333.29,466.67 		"/>
		<polygon class="st1" points="277.74,300.01 333.31,333.34 277.74,366.67 		"/>
		<polygon class="st1" points="277.74,366.67 333.31,400.01 277.74,433.34 		"/>
		<polygon class="st1" points="277.74,433.34 333.31,466.67 277.74,500.01 		"/>
	</g>
	<g>
		<polygon class="st1" points="944.45,833.33 888.89,866.67 944.45,900 		"/>
		<polygon class="st1" points="888.89,866.67 833.32,900 888.89,933.33 		"/>
		<polygon class="st1" points="944.45,900 888.89,933.33 944.45,966.67 		"/>
		<polygon class="st1" points="1000,800 944.44,833.33 1000,866.67 		"/>
		<polygon class="st1" points="1000,866.67 944.44,900 1000,933.33 		"/>
		<polygon class="st1" points="1000,933.33 944.44,966.67 1000,1000 		"/>
	</g>
	<g>
		<polygon class="st3" points="888.89,666.67 944.45,700 888.89,733.33 		"/>
		<polygon class="st6" points="944.45,633.33 888.89,666.67 944.45,700 		"/>
		<polygon class="st4" points="888.89,666.67 833.32,700 888.89,733.33 		"/>
		<polygon class="st6" points="944.45,700 888.89,733.33 944.45,766.67 		"/>
		<polygon class="st4" points="1000,600 944.44,633.33 1000,666.67 		"/>
		<polygon class="st1" points="944.44,633.33 1000,666.67 944.44,700 		"/>
		<polygon class="st5" points="1000,666.67 944.44,700 1000,733.33 		"/>
		<polygon class="st4" points="944.44,700 1000,733.33 944.44,766.67 		"/>
		<polygon class="st0" points="1000,733.33 944.44,766.67 1000,800 		"/>
	</g>
	<g>
		<polygon class="st3" points="0,200 41.67,225 0,250 		"/>
		<polygon class="st3" points="41.67,225 83.34,250 41.67,275 		"/>
		<polygon class="st5" points="41.67,225 0,250 41.67,275 		"/>
		<polygon class="st2" points="0,250 41.67,275 0,300 		"/>
		<polygon class="st4" points="41.67,275 83.34,300 41.67,325 		"/>
		<polygon class="st6" points="83.34,250 41.67,275 83.34,300 		"/>
		<polygon class="st4" points="41.67,275 0,300 41.67,325 		"/>
		<polygon class="st1" points="0,300 41.67,325 0,350 		"/>
		<polygon class="st6" points="41.67,325 83.34,350 41.67,375 		"/>
		<polygon class="st0" points="83.34,300 41.67,325 83.34,350 		"/>
		<polygon class="st5" points="41.67,325 0,350 41.67,375 		"/>
		<polygon class="st3" points="0,350 41.67,375 0,400 		"/>
		<polygon class="st4" points="83.32,250 124.99,275 83.32,300 		"/>
		<polygon class="st2" points="124.99,275 166.66,300 124.99,325 		"/>
		<polygon class="st6" points="124.99,275 83.32,300 124.99,325 		"/>
		<polygon class="st3" points="83.32,300 124.99,325 83.32,350 		"/>
	</g>
	<g>
		<polygon class="st2" points="499.98,500 583.31,550 499.98,600 		"/>
		<polygon class="st5" points="499.98,600 583.31,650 499.98,700 		"/>
		<polygon class="st1" points="583.31,550 499.98,600 583.31,650 		"/>
		<polygon class="st4" points="583.31,550 666.65,600 583.31,650 		"/>
	</g>
	<g>
		<polygon class="st3" points="166.66,600 83.33,650 166.66,700 		"/>
		<polygon class="st4" points="166.66,700 83.33,750 166.66,800 		"/>
		<polygon class="st1" points="83.33,650 166.66,700 83.33,750 		"/>
		<polygon class="st4" points="83.33,650 -0.01,700 83.33,750 		"/>
	</g>
	<g>
		<polygon class="st4" points="166.66,0 83.33,50 166.66,100 		"/>
		<polygon class="st3" points="83.33,0 166.66,0 83.33,50 		"/>
		<polygon class="st4" points="83.33,0 -0.01,0 83.33,50 		"/>
	</g>
	<g>
		<polygon class="st0" points="166.66,900 83.33,950 166.66,1000 		"/>
		<polygon class="st3" points="83.33,950 166.66,1000 83.33,1000 		"/>
		<polygon class="st4" points="83.33,950 -0.01,1000 83.33,1000 		"/>
	</g>
	<g>
		<polygon class="st3" points="833.33,300 866.66,320 833.33,340 		"/>
		<polygon class="st4" points="866.66,320 900,340 866.66,360 		"/>
		<polygon class="st1" points="866.66,320 833.33,340 866.66,360 		"/>
		<polygon class="st6" points="833.33,340 866.66,360 833.33,380 		"/>
		<polygon class="st3" points="866.66,360 900,380 866.66,400.01 		"/>
		<polygon class="st4" points="900,340 866.66,360 900,380 		"/>
		<polygon class="st5" points="866.66,360 833.33,380 866.66,400.01 		"/>
		<polygon class="st2" points="833.33,380 866.66,400.01 833.33,420.01 		"/>
		<polygon class="st4" points="866.66,400.01 900,420.01 866.66,440.01 		"/>
		<polygon class="st6" points="900,380 866.66,400.01 900,420.01 		"/>
		<polygon class="st4" points="866.66,400.01 833.33,420.01 866.66,440.01 		"/>
		<polygon class="st1" points="833.33,420.01 866.66,440.01 833.33,460.01 		"/>
		<polygon class="st6" points="866.66,440.01 900,460.01 866.66,480.01 		"/>
		<polygon class="st0" points="900,420.01 866.66,440.01 900,460.01 		"/>
		<polygon class="st5" points="866.66,440.01 833.33,460.01 866.66,480.01 		"/>
		<polygon class="st1" points="833.33,460.01 866.66,480.01 833.33,500.01 		"/>
		<polygon class="st4" points="899.99,340 933.33,360 899.99,380 		"/>
		<polygon class="st1" points="933.33,360 966.66,380 933.33,400.01 		"/>
		<polygon class="st5" points="933.33,360 899.99,380 933.33,400.01 		"/>
		<polygon class="st4" points="899.99,380 933.33,400.01 899.99,420.01 		"/>
		<polygon class="st6" points="933.33,400.01 966.66,420.01 933.33,440.01 		"/>
		<polygon class="st3" points="966.66,380 933.33,400.01 966.66,420.01 		"/>
		<polygon class="st6" points="933.33,400.01 899.99,420.01 933.33,440.01 		"/>
		<polygon class="st3" points="899.99,420.01 933.33,440.01 899.99,460.01 		"/>
		<polygon class="st4" points="966.66,380 1000,400.01 966.66,420.01 		"/>
	</g>
	<g>
		<polygon class="st0" points="833.33,300 799.99,320 833.33,340 		"/>
		<polygon class="st1" points="799.99,320 766.65,340 799.99,360 		"/>
		<polygon class="st1" points="799.99,320 833.33,340 799.99,360 		"/>
		<polygon class="st3" points="833.33,340 799.99,360 833.33,380 		"/>
		<polygon class="st3" points="799.99,360 766.65,380 799.99,400.01 		"/>
		<polygon class="st4" points="766.65,340 799.99,360 766.65,380 		"/>
		<polygon class="st0" points="799.99,360 833.33,380 799.99,400.01 		"/>
		<polygon class="st1" points="833.33,380 799.99,400.01 833.33,420.01 		"/>
		<polygon class="st4" points="799.99,400.01 766.65,420.01 799.99,440.01 		"/>
		<polygon class="st6" points="766.65,380 799.99,400.01 766.65,420.01 		"/>
		<polygon class="st4" points="799.99,400.01 833.33,420.01 799.99,440.01 		"/>
		<polygon class="st2" points="833.33,420.01 799.99,440.01 833.33,460.01 		"/>
		<polygon class="st6" points="799.99,440.01 766.65,460.01 799.99,480.01 		"/>
		<polygon class="st0" points="766.65,420.01 799.99,440.01 766.65,460.01 		"/>
		<polygon class="st5" points="799.99,440.01 833.33,460.01 799.99,480.01 		"/>
		<polygon class="st3" points="833.33,460.01 799.99,480.01 833.33,500.01 		"/>
		<polygon class="st4" points="766.66,340 733.32,360 766.66,380 		"/>
		<polygon class="st0" points="733.32,360 699.99,380 733.32,400.01 		"/>
		<polygon class="st5" points="733.32,360 766.66,380 733.32,400.01 		"/>
		<polygon class="st4" points="766.66,380 733.32,400.01 766.66,420.01 		"/>
		<polygon class="st6" points="733.32,400.01 699.99,420.01 733.32,440.01 		"/>
		<polygon class="st3" points="699.99,380 733.32,400.01 699.99,420.01 		"/>
		<polygon class="st6" points="733.32,400.01 766.66,420.01 733.32,440.01 		"/>
		<polygon class="st3" points="766.66,420.01 733.32,440.01 766.66,460.01 		"/>
		<polygon class="st1" points="699.99,380 666.65,400.01 699.99,420.01 		"/>
	</g>
	<g>
		<g>
			<polygon class="st3" points="500,700 566.67,740 500,780 			"/>
			<polygon class="st4" points="566.67,740 633.34,780 566.67,819.99 			"/>
			<polygon class="st1" points="566.67,740 500,780 566.67,819.99 			"/>
			<polygon class="st6" points="500,780 566.67,819.99 500,860 			"/>
			<polygon class="st3" points="566.67,819.99 633.34,860 566.67,900 			"/>
			<polygon class="st5" points="633.34,780 566.67,819.99 633.34,860 			"/>
			<polygon class="st5" points="566.67,819.99 500,860 566.67,900 			"/>
			<polygon class="st0" points="500,860 566.67,900 500,939.99 			"/>
			<polygon class="st4" points="566.67,900 633.34,939.99 566.67,979.99 			"/>
			<polygon class="st6" points="633.34,860 566.67,900 633.34,939.99 			"/>
			<polygon class="st0" points="566.67,900 500,939.99 566.67,979.99 			"/>
			<polygon class="st1" points="533.32,1000 566.67,979.99 500,939.99 500,1000 			"/>
			<polygon class="st6" points="600.02,1000 566.67,979.99 566.67,1000 			"/>
			<polygon class="st0" points="633.34,1000 633.34,939.99 566.67,979.99 600.02,1000 			"/>
			<polygon class="st5" points="566.67,1000 566.67,979.99 533.32,1000 			"/>
			<polygon class="st4" points="633.32,780 699.99,819.99 633.32,860 			"/>
			<polygon class="st1" points="699.99,819.99 766.66,860 699.99,900 			"/>
			<polygon class="st5" points="699.99,819.99 633.32,860 699.99,900 			"/>
			<polygon class="st4" points="633.32,860 699.99,900 633.32,939.99 			"/>
			<polygon class="st2" points="699.99,900 766.66,939.99 699.99,979.99 			"/>
			<polygon class="st3" points="766.66,860 699.99,900 766.66,939.99 			"/>
			<polygon class="st6" points="699.99,900 633.32,939.99 699.99,979.99 			"/>
			<polygon class="st3" points="666.64,1000 699.99,979.99 633.32,939.99 633.32,1000 			"/>
			<polygon class="st4" points="766.66,860 833.32,900 766.66,939.99 			"/>
		</g>
		<g>
			<polygon class="st0" points="500,700 433.33,740 500,780 			"/>
			<polygon class="st4" points="433.33,740 366.66,780 433.33,819.99 			"/>
			<polygon class="st6" points="433.33,740 500,780 433.33,819.99 			"/>
			<polygon class="st3" points="500,780 433.33,819.99 500,860 			"/>
			<polygon class="st4" points="433.33,819.99 366.66,860 433.33,900 			"/>
			<polygon class="st4" points="366.66,780 433.33,819.99 366.66,860 			"/>
			<polygon class="st0" points="433.33,819.99 500,860 433.33,900 			"/>
			<polygon class="st4" points="500,860 433.33,900 500,939.99 			"/>
			<polygon class="st4" points="433.33,900 366.66,939.99 433.33,979.99 			"/>
			<polygon class="st6" points="366.66,860 433.33,900 366.66,939.99 			"/>
			<polygon class="st4" points="433.33,900 500,939.99 433.33,979.99 			"/>
			<polygon class="st1" points="500,1000 500,939.99 433.33,979.99 466.68,1000 			"/>
			<polygon class="st6" points="433.33,1000 433.33,979.99 399.98,1000 			"/>
			<polygon class="st0" points="399.98,1000 433.33,979.99 366.66,939.99 366.66,1000 			"/>
			<polygon class="st5" points="466.68,1000 433.33,979.99 433.33,1000 			"/>
			<polygon class="st4" points="366.68,780 300.01,819.99 366.68,860 			"/>
			<polygon class="st0" points="300.01,819.99 233.34,860 300.01,900 			"/>
			<polygon class="st2" points="300.01,819.99 366.68,860 300.01,900 			"/>
			<polygon class="st4" points="366.68,860 300.01,900 366.68,939.99 			"/>
			<polygon class="st3" points="300.01,900 233.34,939.99 300.01,979.99 			"/>
			<polygon class="st3" points="233.34,860 300.01,900 233.34,939.99 			"/>
			<polygon class="st6" points="300.01,900 366.68,939.99 300.01,979.99 			"/>
			<polygon class="st3" points="366.68,1000 366.68,939.99 300.01,979.99 333.36,1000 			"/>
			<polygon class="st1" points="233.34,860 166.67,900 233.34,939.99 			"/>
		</g>
	</g>
	<g>
		<polygon class="st1" points="500,0 500,20 533.33,0 		"/>
		<polygon class="st6" points="566.67,0 566.67,60 633.34,20 600,0 		"/>
		<polygon class="st0" points="600,0 633.34,20 633.34,0 		"/>
		<polygon class="st5" points="533.33,0 500,20 566.67,60 566.67,0 		"/>
		<polygon class="st1" points="500,20 566.67,60 500,100 		"/>
		<polygon class="st3" points="633.32,0 633.32,20 666.65,0 		"/>
		<polygon class="st1" points="466.67,0 500,20 500,0 		"/>
		<polygon class="st6" points="400,0 366.66,20 433.33,60 433.33,0 		"/>
		<polygon class="st0" points="366.66,0 366.66,20 400,0 		"/>
		<polygon class="st5" points="433.33,0 433.33,60 500,20 466.67,0 		"/>
		<polygon class="st3" points="500,20 433.33,60 500,100 		"/>
		<polygon class="st3" points="333.35,0 366.68,20 366.68,0 		"/>
	</g>
</g>
</svg>
